<?xml version="1.0" encoding="UTF-8"?>
<svg width="256px" height="256px" viewBox="0 0 256 256" version="1.1" xmlns="http://www.w3.org/2000/svg">
    <g>
        <path d="M210.483381,73.8236374 C207.827698,72.9095503 205.075867,72.0446761 202.24247,71.2267368 C202.708172,69.3261098 203.135596,67.4500894 203.515631,65.6059664 C209.753843,35.3248922 205.675082,10.9302478 191.747328,2.89849283 C178.392359,-4.80289661 156.551327,3.22703567 134.492936,22.4237776 C132.371761,24.2697233 130.244662,26.2241201 128.118477,28.2723861 C126.701777,26.917204 125.287358,25.6075897 123.876584,24.3549348 C100.758745,3.82852863 77.5866802,-4.82157937 63.6725966,3.23341515 C50.3303869,10.9571328 46.3792156,33.8904224 51.9945178,62.5880206 C52.5367729,65.3599011 53.1706189,68.1905639 53.8873982,71.068617 C50.6078941,71.9995641 47.4418534,72.9920277 44.4125156,74.0478303 C17.3093297,83.497195 0,98.3066828 0,113.667995 C0,129.533287 18.5815786,145.446423 46.8116526,155.095373 C49.0394553,155.856809 51.3511025,156.576778 53.7333796,157.260293 C52.9600965,160.37302 52.2875179,163.423318 51.7229345,166.398431 C46.3687351,194.597975 50.5500231,216.989464 63.8566899,224.664425 C77.6012619,232.590464 100.66852,224.443422 123.130185,204.809231 C124.905501,203.257196 126.687196,201.611293 128.472081,199.886102 C130.785552,202.113904 133.095375,204.222319 135.392897,206.199955 C157.14963,224.922338 178.637969,232.482469 191.932332,224.786092 C205.663234,216.837268 210.125675,192.78347 204.332202,163.5181 C203.88974,161.283006 203.374826,158.99961 202.796573,156.675661 C204.416503,156.196743 206.006814,155.702335 207.557482,155.188332 C236.905331,145.46465 256,129.745175 256,113.667995 C256,98.2510906 238.132466,83.3418093 210.483381,73.8236374 L210.483381,73.8236374 Z" fill="#00D8FF"></path>
        <path d="M201.345213,142.241309 C199.916538,142.708601 198.447765,143.159289 196.944473,143.592099 C194.555416,135.459556 191.311129,126.883803 187.289391,118.002114 C191.071448,109.326027 194.122015,100.843848 196.403969,92.781791 C199.081201,93.547489 201.665619,94.38455 204.143595,95.290622 C227.945403,103.21328 243.09426,115.464752 243.09426,123.667995 C243.09426,132.364956 226.907479,145.381974 201.345213,142.241309 L201.345213,142.241309 Z" fill="#00D8FF"></path>
        <path d="M171.060333,162.491357 C173.210406,172.271049 173.73432,181.107041 172.726911,187.926735 C171.610128,195.46181 169.124271,200.599434 165.953105,202.630015 C159.312267,206.873764 143.498776,200.004316 126.858155,185.067359 C124.715828,183.226859 122.571945,181.25276 120.444775,179.154604 C126.826186,172.195814 133.205074,164.05877 139.488908,154.989471 C149.214503,153.913087 158.327604,152.423367 166.470975,150.563164 C167.003255,152.696999 167.471347,154.788083 167.871305,156.823001 C168.898649,161.208483 170.096089,166.959883 171.060333,162.491357 L171.060333,162.491357 Z" fill="#00D8FF"></path>
        <path d="M132.270271,190.599076 C125.707819,193.345399 120.843294,193.824648 117.67227,191.793862 C111.031433,187.550114 108.895982,170.809864 113.570326,148.888647 C114.099339,146.104912 114.728931,143.261052 115.451788,140.372595 C123.495223,142.14673 132.511063,143.558287 142.20278,144.573903 C148.523481,153.471694 154.911337,161.520686 161.194108,168.390842 C159.556126,169.990361 157.915128,171.50399 156.278451,172.922721 C148.217103,179.98354 139.881181,186.743019 132.270271,190.599076 L132.270271,190.599076 Z" fill="#00D8FF"></path>
        <path d="M113.737894,134.546412 C111.354464,129.467613 109.170377,124.396617 107.199041,119.361143 C109.133497,114.317675 111.285937,109.309544 113.637248,104.362686 C115.883468,99.6421713 118.281474,95.0397832 120.811574,90.5798124 C122.938436,90.1689334 125.109144,89.7851557 127.317327,89.4299332 C138.60635,87.9047608 149.289135,87.3961258 158.780548,87.8938635 C160.903312,91.4650819 162.963228,95.1486926 164.945271,98.9215137 C166.818781,102.478486 168.617324,106.078061 170.333124,109.704436 C166.576715,110.669849 162.634531,111.736599 158.526799,112.895714 C150.812117,114.968809 142.634806,116.613335 134.235894,117.806476 C130.595159,118.373081 127.014114,118.870808 123.50204,119.300981 C120.431592,124.386897 117.514372,129.522706 114.781721,134.658815 C114.433646,134.62112 114.085899,134.583942 113.737894,134.546412 L113.737894,134.546412 Z" fill="#00D8FF"></path>
        <path d="M170.406619,74.7402396 C171.779018,76.9288153 173.109315,79.1372837 174.393566,81.3621332 C162.26864,84.3880021 149.423608,88.3995734 136.203902,93.3384457 C129.940384,95.7353276 123.815354,98.2965574 117.881347,100.985766 C116.623697,98.5239934 115.400552,96.0751591 114.217005,93.6440602 C109.651288,84.4299969 105.596162,75.2077602 102.086629,66.0949237 C107.026731,64.8425509 112.192563,63.7478338 117.548755,62.8279933 C129.815117,60.8655291 141.493814,60.1488897 151.865235,60.6405821 C158.28617,65.1954387 164.504903,69.8970257 170.406619,74.7402396 L170.406619,74.7402396 Z" fill="#00D8FF"></path>
        <path d="M84.8657008,123.667995 C84.8657008,118.305747 93.1272368,112.929555 106.164396,109.339493 C108.696649,108.513872 111.406843,107.756578 114.261178,107.070378 C117.048624,112.06879 120.074839,117.112867 123.304612,122.161379 C126.588835,127.302864 130.049106,132.360302 133.662814,137.300093 C127.245661,137.775319 120.983566,138.431382 114.938391,139.262374 C103.846203,140.918804 93.9091245,143.034145 85.7445394,145.452882 C85.1814553,138.303081 84.8657008,130.931507 84.8657008,123.667995 L84.8657008,123.667995 Z" fill="#00D8FF"></path>
        <path d="M84.8657008,123.667995 C84.8657008,118.305747 93.1272368,112.929555 106.164396,109.339493 C108.696649,108.513872 111.406843,107.756578 114.261178,107.070378 C117.048624,112.06879 120.074839,117.112867 123.304612,122.161379 C126.588835,127.302864 130.049106,132.360302 133.662814,137.300093 C127.245661,137.775319 120.983566,138.431382 114.938391,139.262374 C103.846203,140.918804 93.9091245,143.034145 85.7445394,145.452882 C85.1814553,138.303081 84.8657008,130.931507 84.8657008,123.667995 L84.8657008,123.667995 Z" fill="#00D8FF"></path>
    </g>
</svg>
