<?xml version="1.0" encoding="UTF-8"?>
<svg width="256px" height="256px" viewBox="0 0 256 256" version="1.1" xmlns="http://www.w3.org/2000/svg" xmlns:xlink="http://www.w3.org/1999/xlink" preserveAspectRatio="xMidYMid">
    <g>
        <rect fill="#092E20" x="0" y="0" width="256" height="256" rx="28"></rect>
        <path d="M186.377,94.198 L186.377,149.227 C186.377,186.352 186.786,189.388 188.42,193.243 C189.645,196.28 191.688,198.732 193.322,200.366 C194.956,202 196.181,203.225 196.181,203.634 C196.181,204.452 188.829,204.043 185.383,203.634 L165.764,203.634 C162.727,204.043 155.375,204.452 155.375,203.634 C155.375,203.225 156.6,202 158.234,200.366 C159.868,198.732 161.911,196.28 163.136,193.243 C164.77,189.388 165.179,186.352 165.179,149.227 L165.179,94.198 L186.377,94.198 Z M186.786,53.845 C186.786,63.65 178.617,71.819 168.812,71.819 C159.007,71.819 150.838,63.65 150.838,53.845 C150.838,44.04 159.007,35.871 168.812,35.871 C178.617,35.871 186.786,44.04 186.786,53.845 Z M150.838,94.198 L150.838,149.227 C150.838,186.352 151.247,189.388 152.881,193.243 C154.106,196.28 156.149,198.732 157.783,200.366 C159.417,202 160.642,203.225 160.642,203.634 C160.642,204.452 153.29,204.043 149.844,203.634 L130.225,203.634 C127.188,204.043 119.836,204.452 119.836,203.634 C119.836,203.225 121.061,202 122.695,200.366 C124.329,198.732 126.372,196.28 127.597,193.243 C129.231,189.388 129.64,186.352 129.64,149.227 L129.64,94.198 L150.838,94.198 Z M150.838,53.845 C150.838,63.65 142.669,71.819 132.864,71.819 C123.059,71.819 114.89,63.65 114.89,53.845 C114.89,44.04 123.059,35.871 132.864,35.871 C142.669,35.871 150.838,44.04 150.838,53.845 Z M115.299,94.198 L115.299,149.227 C115.299,186.352 115.708,189.388 117.342,193.243 C118.567,196.28 120.61,198.732 122.244,200.366 C123.878,202 125.103,203.225 125.103,203.634 C125.103,204.452 117.751,204.043 114.305,203.634 L94.686,203.634 C91.649,204.043 84.297,204.452 84.297,203.634 C84.297,203.225 85.522,202 87.156,200.366 C88.79,198.732 90.833,196.28 92.058,193.243 C93.692,189.388 94.101,186.352 94.101,149.227 L94.101,94.198 L115.299,94.198 Z M115.299,53.845 C115.299,63.65 107.13,71.819 97.325,71.819 C87.52,71.819 79.351,63.65 79.351,53.845 C79.351,44.04 87.52,35.871 97.325,35.871 C107.13,35.871 115.299,44.04 115.299,53.845 Z M79.76,94.198 L79.76,149.227 C79.76,186.352 80.169,189.388 81.803,193.243 C83.028,196.28 85.071,198.732 86.705,200.366 C88.339,202 89.564,203.225 89.564,203.634 C89.564,204.452 82.212,204.043 78.766,203.634 L59.147,203.634 C56.11,204.043 48.758,204.452 48.758,203.634 C48.758,203.225 49.983,202 51.617,200.366 C53.251,198.732 55.294,196.28 56.519,193.243 C58.153,189.388 58.562,186.352 58.562,149.227 L58.562,94.198 L79.76,94.198 Z M79.76,53.845 C79.76,63.65 71.591,71.819 61.786,71.819 C51.981,71.819 43.812,63.65 43.812,53.845 C43.812,44.04 51.981,35.871 61.786,35.871 C71.591,35.871 79.76,44.04 79.76,53.845 Z" fill="#FFFFFD"></path>
    </g>
</svg>
